<?xml version="1.0" standalone="no"?>
<!DOCTYPE svg PUBLIC "-//W3C//DTD SVG 20010904//EN"
 "http://www.w3.org/TR/2001/REC-SVG-20010904/DTD/svg10.dtd">
<svg version="1.0" xmlns="http://www.w3.org/2000/svg"
 width="75.000000pt" height="75.000000pt" viewBox="0 0 75.000000 75.000000"
 preserveAspectRatio="xMidYMid meet">

<g transform="translate(0.000000,75.000000) scale(0.100000,-0.100000)"
fill="#000000" stroke="none">
<path d="M346 587 c-24 -26 -36 -32 -51 -26 -61 24 -129 -14 -141 -77 -4 -20
-17 -46 -30 -59 -36 -36 -34 -116 2 -150 27 -25 84 -35 84 -15 0 6 -8 10 -19
10 -10 0 -30 9 -45 21 -33 26 -37 88 -6 119 11 11 24 20 28 20 4 0 8 16 8 35
0 68 83 106 133 61 19 -17 20 -17 35 16 20 42 63 68 111 68 29 0 45 -8 72 -35
34 -34 35 -38 30 -89 -5 -53 -5 -54 23 -60 19 -3 35 -16 45 -36 30 -59 -4
-120 -67 -120 -16 0 -28 -4 -28 -10 0 -5 16 -10 36 -10 97 0 130 140 44 188
-23 13 -29 22 -26 38 8 31 -11 88 -39 118 -22 23 -31 26 -96 26 -68 0 -73 -2
-103 -33z"/>
<path d="M430 324 c-58 -24 -133 -56 -167 -70 -35 -15 -63 -30 -63 -35 0 -5
13 -15 30 -24 27 -14 30 -20 30 -65 0 -59 17 -66 50 -20 20 28 23 29 43 15 12
-8 27 -15 33 -15 13 0 164 229 164 248 0 16 -2 16 -120 -34z m74 -6 c-47 -78
-116 -178 -122 -178 -4 0 -13 4 -20 9 -10 6 -4 19 23 52 21 25 32 45 26 47 -7
2 -40 -8 -75 -23 -49 -21 -68 -25 -82 -17 -18 10 -17 11 6 21 14 5 75 30 135
55 127 52 118 49 109 34z m-174 -148 c-42 -53 -50 -57 -50 -22 0 25 6 32 38
45 20 9 39 16 40 16 2 1 -11 -17 -28 -39z"/>
</g>
</svg>
