<?xml version="1.0" standalone="no"?>
<!DOCTYPE svg PUBLIC "-//W3C//DTD SVG 20010904//EN"
 "http://www.w3.org/TR/2001/REC-SVG-20010904/DTD/svg10.dtd">
<svg version="1.0" xmlns="http://www.w3.org/2000/svg"
 width="700.000000pt" height="700.000000pt" viewBox="0 0 700.000000 700.000000"
 preserveAspectRatio="xMidYMid meet">
<metadata>
Created by potrace 1.14, written by Peter Selinger 2001-2017
</metadata>
<g transform="translate(0.000000,700.000000) scale(0.100000,-0.100000)"
fill="#000000" stroke="none">
<path d="M3877 5784 c-1 -1 -43 -4 -93 -8 -111 -7 -232 -37 -293 -72 -71 -41
-121 -85 -280 -244 -249 -249 -306 -274 -496 -211 -117 38 -200 53 -305 54
-237 1 -447 -73 -633 -223 -175 -141 -280 -312 -336 -550 -51 -212 -149 -413
-270 -548 -27 -31 -62 -70 -76 -87 -42 -48 -121 -223 -144 -317 -41 -167 -47
-378 -16 -528 82 -395 294 -610 700 -707 11 -3 65 -7 120 -10 85 -5 106 -2
140 13 116 55 67 158 -82 171 -79 6 -154 28 -243 71 -305 146 -448 364 -455
697 -3 110 0 144 20 221 24 94 57 169 106 240 60 88 227 230 305 260 67 26 87
95 98 344 9 176 56 314 148 432 226 290 608 388 923 238 76 -37 102 -54 185
-126 54 -47 103 -81 126 -88 40 -12 79 36 157 193 41 81 93 176 116 210 163
240 458 424 746 466 22 3 46 8 54 11 27 9 268 5 321 -6 172 -36 295 -114 501
-320 209 -208 266 -288 288 -406 9 -46 7 -287 -2 -329 -3 -11 -8 -65 -12 -120
-3 -55 -9 -113 -11 -130 -3 -16 -6 -79 -7 -140 -2 -174 23 -207 184 -245 173
-42 236 -71 321 -148 194 -179 295 -516 235 -783 -19 -83 -74 -199 -126 -269
-45 -59 -137 -137 -207 -177 -48 -26 -146 -64 -171 -65 -5 0 -18 -4 -31 -9
-13 -5 -60 -11 -105 -14 -179 -12 -202 -15 -248 -30 -59 -20 -96 -60 -77 -83
49 -59 291 -94 468 -68 429 64 746 479 734 962 -5 207 -66 386 -184 542 -74
98 -135 150 -268 234 -120 75 -153 99 -195 143 -55 55 -74 134 -54 220 38 168
-6 440 -110 683 -90 211 -168 329 -313 470 -115 112 -220 156 -425 178 -61 6
-721 14 -728 8z"/>
<path d="M4920 3391 c-63 -21 -162 -57 -220 -80 -110 -45 -563 -233 -615 -256
-16 -8 -59 -26 -95 -40 -61 -25 -88 -37 -167 -71 -17 -8 -34 -14 -37 -14 -3 0
-29 -11 -58 -24 -29 -14 -318 -136 -643 -271 -746 -312 -789 -331 -966 -422
-163 -83 -242 -138 -247 -170 -6 -43 97 -124 316 -247 202 -113 228 -171 237
-522 8 -324 27 -431 84 -493 76 -81 194 -8 371 229 205 276 227 284 409 161
102 -70 255 -141 300 -141 50 1 135 98 380 441 61 85 117 162 123 173 7 10 20
28 29 40 59 79 439 656 571 866 43 69 83 132 88 140 86 131 293 493 327 574
30 72 33 134 7 153 -28 21 -71 15 -194 -26z m-182 -339 c37 -24 -856 -1378
-1108 -1681 -50 -60 -54 -63 -87 -58 -40 7 -122 47 -170 84 -28 21 -33 30 -33
67 0 75 53 160 265 426 192 240 277 394 234 421 -47 29 -315 -52 -709 -214
-355 -145 -493 -188 -606 -189 -75 0 -121 13 -197 59 -81 49 -87 65 -39 100
21 16 87 48 148 72 60 24 165 66 234 93 69 27 134 54 145 59 24 10 449 185
1025 421 228 93 429 176 445 183 88 39 413 162 435 164 3 0 11 -3 18 -7z
m-1404 -1114 c-10 -18 -86 -131 -96 -143 -4 -5 -58 -75 -119 -155 -145 -189
-230 -290 -314 -376 -106 -107 -145 -120 -172 -56 -20 45 -23 264 -5 328 18
61 66 120 133 164 52 34 265 129 489 219 85 34 94 36 84 19z"/>
</g>
</svg>
